<svg fill="none" height="64" viewBox="0 0 56 64" width="56" xmlns="http://www.w3.org/2000/svg"><path d="m28 64c-.1333 0-.2667-.0187-.3947-.0587-9.6266-2.9946-27.6053-13.4826-27.6053-25.2746v-29.33337c0-.58933.386667-1.10933.949333-1.27733l26.666667-8c.2507-.0746667.5147-.0746667.7653 0l26.6667 8c.5653.17067.952.688.952 1.27733v29.33337c0 11.792-17.9787 22.2773-27.6053 25.2746-.128.04-.2614.0587-.3947.0587zm-25.33333-53.6747v28.3414c0 9.3626 14.83463 19.208 25.33333 22.6026 10.4987-3.3946 25.3333-13.24 25.3333-22.6026v-28.3414l-25.3333-7.59997z" fill="#fff"/><g fill="#ff5100"><path d="m28.0006 45.3333c-8.0879 0-14.6666-6.5786-14.6666-14.6666s6.5787-14.6667 14.6666-14.6667c8.088 0 14.6667 6.5787 14.6667 14.6667s-6.5787 14.6666-14.6667 14.6666zm0-26.6666c-6.6159 0-11.9999 5.384-11.9999 12s5.384 12 11.9999 12c6.616 0 12-5.384 12-12s-5.384-12-12-12z"/><path d="m25.3353 37.3333c-.3413 0-.6827-.1307-.944-.3893l-5.3333-5.3334c-.52-.52-.52-1.3653 0-1.8853s1.3653-.52 1.8853 0l4.392 4.3893 9.7227-9.7226c.52-.52 1.3653-.52 1.8853 0s.52 1.3653 0 1.8853l-10.6667 10.6667c-.2586.2586-.6.3893-.9413.3893z"/></g></svg>