<svg fill="none" height="64" viewBox="0 0 64 64" width="64" xmlns="http://www.w3.org/2000/svg" xmlns:xlink="http://www.w3.org/1999/xlink"><clipPath id="a"><path d="m0 0h64v64h-64z"/></clipPath><g clip-path="url(#a)"><path d="m42.6661 45.8667c-.2133 0-.64-.2133-.8533-.2133-.4267-.4267-.4267-1.0667 0-1.4933.4267-.4267.8533-1.0667.8533-1.7067 0-1.28-1.0666-2.1333-3.2-2.7733h-.2133c-3.4133-.64-5.12-2.3467-5.12-4.9067 0-2.7733 2.3467-4.9067 5.3333-4.9067 2.7734 0 5.12 1.92 5.3334 4.48 0 .64-.4267 1.0667-1.0667 1.0667s-1.0667-.4267-1.0667-1.0667c0-1.4933-1.4933-2.56-3.2-2.56-1.7066 0-3.2 1.28-3.2 2.7734 0 1.28 1.0667 2.1333 3.2 2.7733h.2134c3.4133.8533 5.12 2.3467 5.12 4.9067 0 1.28-.4267 2.3466-1.4934 3.2-.2133.4266-.4266.4266-.64.4266z" fill="#ff5100"/><path d="m39.4671 44.8001c-.64 0-1.0667-.4266-1.0667-1.0666v-14.9334c0-.64.4267-1.0666 1.0667-1.0666s1.0666.4266 1.0666 1.0666v14.9334c0 .64-.4266 1.0666-1.0666 1.0666z" fill="#ff5100"/><g fill="#050f5a"><path d="m9.6 59.7333h-8.53333c-.640003 0-1.06667-.4266-1.06667-1.0666v-25.6c0-.2134.213333-.64.213333-.8534 0-.2133.64-.2133.853337-.2133 2.13333 0 12.37333.2133 14.50663 2.3467.2134.2133.4267.64.4267.8533-.64 7.04-5.12 23.04-5.3333 23.68-.2134.64-.64.8533-1.0667.8533zm-7.46667-2.1333h6.61334c.85333-3.2 4.26663-15.7867 5.12003-21.9733-1.92-.8534-7.4667-1.28-11.73337-1.4934z"/><path d="m35.8395 64.0001c-1.7066 0-3.2-.4267-5.5466-1.28l-20.0534-6.6133c-.63997-.2134-.8533-.8534-.63997-1.28.21333-.4267.85337-.8534 1.27997-.64l20.2667 6.8266c4.9067 1.92 5.5467 1.92 16.64-2.56l13.6533-6.1866c-1.4933-2.1334-4.0533-2.9867-6.8266-2.3467l-10.24 2.56c-.64.2133-1.0667-.2133-1.28-.8533-.2134-.64.2133-1.0667.8533-1.28l10.24-2.56c3.84-1.0667 7.8933.8533 9.8133 4.48.2134.2133.2134.64 0 .8533-.2133.2133-.2133.4267-.64.64l-14.72 6.8267c-7.04 2.1333-10.24 3.4133-12.8 3.4133z"/><path d="m38.6128 53.1199c-.64 0-1.28-.0001-1.7067-.2134l-11.7333-2.3466c-.64-.2134-.8533-.64-.8533-1.28.2133-.64.64-.8534 1.28-.8534l11.7333 2.3467c1.0667.2133 2.1333.2133 2.9867 0l2.7733-.64c-.2133-2.7733-1.28-4.0533-4.48-4.9067l-24.32-5.3333c-.64-.2133-.8533-.64-.8533-1.28.2133-.64.64-.8533 1.28-.8533l24.1066 5.3333c4.2667 1.0667 6.1867 3.4133 6.1867 7.2533v.4267c0 .4267-.4267.8533-.8533 1.0666l-3.6267.8534c-.4267.4267-1.28.4267-1.92.4267z"/><path d="m60.3747 50.1333h-.2133c-.64-.2133-.8534-.64-.8534-1.28.2134-1.28.4267-2.56.4267-3.84 0-5.5467-10.88-20.0533-15.5733-25.8133h-9.6c-1.92 2.3466-11.9467 14.2933-14.5067 20.6933 0 .64-.64.8533-1.28.64s-.8533-.8533-.64-1.28c2.7733-7.4667 14.72-21.12 15.1467-21.76.2133-.2133.64-.4266.8533-.4266h10.6667c.2133 0 .64.2133.8533.4266.64.8533 16.4267 19.84 16.4267 27.52 0 1.4933-.2134 2.9867-.4267 4.2667-.2133.4266-.64.8533-1.28.8533z"/><path d="m44.7996 19.2h-10.6667c-.2133 0-.4267 0-.64-.2133-1.28-.8534-12.16-9.3867-12.5867-14.08003 0-.85334.2134-1.70667.6401-2.34667 2.1333-2.56 8.1066 1.28 11.3066 3.41333 1.7067-2.34666 4.6933-5.97333 6.6133-5.97333s4.9067 3.62667 6.6134 5.97333c3.2-2.34666 8.96-5.97333 11.3066-3.41333.64.64.8534 1.49333.6401 2.34667-.4267 4.90666-11.3067 13.22663-12.5867 14.08003-.2134.2133-.4267.2133-.64.2133zm-10.24-2.1333h10.0266c4.48-3.4134 11.0934-9.60003 11.52-12.37337 0-.42666.0001-.64-.2133-.64-.64-.64-4.9067 1.06667-9.1733 4.48-.4267 0-.64 0-1.0667 0-.2133 0-.64-.21333-.64-.42666-2.1333-2.98667-4.6933-5.76-5.5467-5.97334-.8533 0-3.4133 2.98667-5.5466 5.97334-.2134.21333-.4267.42666-.64.42666-.2134 0-.64 0-.8534-.21333-4.2666-3.2-8.5333-5.12-9.1733-4.48 0 .21333-.2133.21333-.2133.64.2133 2.98667 7.04 9.1733 11.52 12.5867z"/><path d="m50.1344 19.1999h-21.3334c-.64 0-1.0666-.4266-1.0666-1.0666s.4266-1.0667 1.0666-1.0667h21.3334c.64 0 1.0666.4267 1.0666 1.0667s-.4266 1.0666-1.0666 1.0666z"/></g></g></svg>