<svg fill="none" height="55" viewBox="0 0 64 55" width="64" xmlns="http://www.w3.org/2000/svg"><path d="m32.0008 54.2181c-.3813 0-.7466-.1653-1-.4507l-30.66662-34.6666c-.3599999-.4054-.437333-.992-.192-1.4774l8-15.99997c.22667-.45333.688-.738664 1.192-.738664h45.33332c.504 0 .9653.285334 1.192.736004l8 16.00003c.2427.488.168 1.072-.1947 1.48l-30.6666 34.6666c-.2507.288-.616.4507-.9974.4507zm-29.07195-36.208 29.07195 32.864 29.072-32.864-7.2293-14.456h-43.6853z" fill="#fff"/><path d="m43.9998 19.5495c-.4187 0-.816-.1973-1.0667-.5333l-10.9333-14.57603-10.9334 14.57603c-.2586.3466-.6773.5253-1.104.5333-.432-.0107-.832-.232-1.072-.592l-10.66664-16c-.408-.61333-.24267-1.44.37067-1.848.61333-.407996 1.43997-.242663 1.84797.37067l9.6214 14.43203 10.8693-14.49336c.5013-.672003 1.6293-.672003 2.1333 0l10.8694 14.49336 9.6213-14.43203c.408-.610666 1.232-.778666 1.848-.37067.6133.408.7787 1.23467.3707 1.848l-10.6667 16c-.24.36-.64.5813-1.072.5947-.0133-.0027-.0267-.0027-.0373-.0027z" fill="#ff5100"/><g fill="#fff"><path d="m32.0004 54.2178c-.568 0-1.0746-.36-1.2613-.896l-12-34.6666c-.24-.696.1307-1.456.824-1.696.6933-.2427 1.4533.128 1.696.824l10.7413 31.0266 10.7387-31.0266c.2427-.696 1-1.0667 1.696-.824.696.24 1.064 1 .824 1.696l-12 34.6666c-.184.536-.6907.896-1.2587.896z"/><path d="m62.6667 19.5514h-61.33337c-.735997 0-1.33333-.5973-1.33333-1.3333s.597333-1.3333 1.33333-1.3333h61.33337c.736 0 1.3333.5973 1.3333 1.3333s-.5973 1.3333-1.3333 1.3333z"/></g></svg>