<svg fill="none" height="64" viewBox="0 0 64 64" width="64" xmlns="http://www.w3.org/2000/svg"><g fill="#050f5a"><path d="m31.9997 64h-13.9131c-.768 0-1.3913-.5973-1.3913-1.3333 0-3.0347 2.7659-5.7547 6.5948-9.52l.7541-.744c2.9162-2.8747 3.7175-10.912 3.7788-13.7654.0194-.7253.64-1.304 1.3941-1.304h.0306c.7652.016 1.3774.624 1.3607 1.36-.0112.4613-.2894 11.352-4.5691 15.568l-.7569.7467c-2.5488 2.5067-4.6747 4.5973-5.4706 6.3253h12.1879c.768 0 1.3913.5974 1.3913 1.3334s-.6233 1.3333-1.3913 1.3333z"/><path d="m45.9137 64h-13.913c-.768 0-1.3913-.5973-1.3913-1.3333s.6233-1.3334 1.3913-1.3334h12.1878c-.7958-1.728-2.9217-3.8186-5.4706-6.3253l-.7569-.7467c-4.2768-4.2186-4.5579-15.1093-4.569-15.568-.0167-.736.5955-1.344 1.3607-1.36h.0306c.7541 0 1.3746.5787 1.3913 1.3067.0612 2.8533.8654 10.888 3.7788 13.7653l.7541.744c3.8288 3.7654 6.5947 6.4854 6.5947 9.52.0028.7334-.6205 1.3307-1.3885 1.3307z"/><path d="m47.3054 32.0002c-.768 0-1.3913-.5974-1.3913-1.3334s.6233-1.3333 1.3913-1.3333c7.6716 0 13.913-5.9813 13.913-13.3333v-10.66672h-12.5217c-.768 0-1.3913-.59734-1.3913-1.33334s.6233-1.33333 1.3913-1.33333h13.913c.768 0 1.3913.59733 1.3913 1.33333v12.00006c0 8.824-7.488 16-16.6956 16z"/><path d="m16.6957 32.0002c-9.2077 0-16.6957-7.176-16.6957-16v-12.00006c0-.736.623304-1.33333 1.3913-1.33333h13.913c.768 0 1.3914.59733 1.3914 1.33333s-.6234 1.33334-1.3914 1.33334h-12.52169v10.66672c0 7.352 6.24139 13.3333 13.91309 13.3333.7679 0 1.3913.5973 1.3913 1.3333s-.6234 1.3334-1.3913 1.3334z"/><path d="m32.001 40c-9.8031 0-18.0869-7.9386-18.0869-17.3333v-21.33337c0-.735996.6233-1.33333 1.3913-1.33333h33.3913c.768 0 1.3913.597334 1.3913 1.33333v21.33337c0 9.3947-8.2839 17.3333-18.087 17.3333zm-15.3043-37.33333v20.00003c0 7.9493 7.0094 14.6667 15.3043 14.6667 8.295 0 15.3044-6.7174 15.3044-14.6667v-20.00003z"/></g><path d="m26.7799 28.4444v-2.9402h3.9327v-12.5655l-3.0423 2.0526-1.2367-2.6074 5.1942-3.49505h2.2508v16.61535h3.6854v2.9402z" fill="#ff5100"/></svg>