<svg fill="none" height="24" viewBox="0 0 24 24" width="24" xmlns="http://www.w3.org/2000/svg"><path clip-rule="evenodd" d="m3.59998 3.5999c0-.31826.12642-.62348.35147-.84853.22504-.22504.53027-.35147.84853-.35147h14.40002c.3182 0 .6235.12643.8485.35147.225.22505.3515.53027.3515.84853v3.6c-.0001.31824-.1266.62341-.3516.8484l-5.6484 5.6484v4.3032c-.0001.3182-.1266.6234-.3516.8484l-2.4 2.4c-.1678.1678-.3816.282-.6144.3283-.2327.0463-.474.0225-.6932-.0683s-.40665-.2446-.53851-.4418c-.13186-.1973-.20226-.4293-.20231-.6666v-6.7032l-5.6484-5.6484c-.22506-.22499-.35154-.53016-.3516-.8484z" fill="#717b96" fill-rule="evenodd"/></svg>