<svg fill="none" height="32" viewBox="0 0 32 32" width="32" xmlns="http://www.w3.org/2000/svg" xmlns:xlink="http://www.w3.org/1999/xlink"><clipPath id="a"><path d="m0 0h32v32h-32z"/></clipPath><g clip-path="url(#a)"><path d="m16 32c-.0667 0-.1333-.0093-.1973-.0293-4.8134-1.4974-13.8027-6.7414-13.8027-12.6374v-14.66663c0-.29467.19333-.55467.47467-.63867l13.33333-4c.1253-.03733333.2573-.03733333.3827 0l13.3333 4c.2827.08533.476.344.476.63867v14.66663c0 5.896-8.9893 11.1387-13.8027 12.6374-.064.02-.1306.0293-.1973.0293zm-12.66667-26.83733v14.17063c0 4.6814 7.41737 9.604 12.66667 11.3014 5.2493-1.6974 12.6667-6.62 12.6667-11.3014v-14.17063l-12.6667-3.8z" fill="#050f5a"/><g fill="#ff5100"><path d="m15.9993 22.6667c-4.044 0-7.33328-3.2894-7.33328-7.3334s3.28928-7.3333 7.33328-7.3333 7.3334 3.2893 7.3334 7.3333-3.2894 7.3334-7.3334 7.3334zm0-13.33337c-3.308 0-5.99995 2.69197-5.99995 5.99997s2.69195 6 5.99995 6 6-2.692 6-6-2.692-5.99997-6-5.99997z"/><path d="m14.6657 18.6676c-.1707 0-.3413-.0653-.472-.1946l-2.6667-2.6667c-.26-.26-.26-.6827 0-.9427s.6827-.26.9427 0l2.196 2.1947 4.8613-4.8613c.26-.26.6827-.26.9427 0s.26.6826 0 .9426l-5.3333 5.3334c-.1294.1293-.3.1946-.4707.1946z"/></g></g></svg>