<svg fill="none" height="100" viewBox="0 0 100 100" width="100" xmlns="http://www.w3.org/2000/svg"><path d="m80 85h-60c-2.6522 0-5.1957-1.0536-7.0711-2.9289-1.8753-1.8754-2.9289-4.4189-2.9289-7.0711v-50h80v50c0 2.6522-1.0536 5.1957-2.9289 7.0711-1.8754 1.8753-4.4189 2.9289-7.0711 2.9289z" fill="#050f5a"/><path d="m80 35h-70v-10c0-2.6522 1.0536-5.1957 2.9289-7.0711 1.8754-1.8753 4.4189-2.9289 7.0711-2.9289h60c2.6522 0 5.1957 1.0536 7.0711 2.9289 1.8753 1.8754 2.9289 4.4189 2.9289 7.0711s-1.0536 5.1957-2.9289 7.0711c-1.8754 1.8753-4.4189 2.9289-7.0711 2.9289z" fill="#40a6f9"/><path d="m80 95c8.2843 0 15-6.7157 15-15s-6.7157-15-15-15-15 6.7157-15 15 6.7157 15 15 15z" fill="#6fc4fb"/><path d="m75 80 3.54 3.54 7.07-7.08" stroke="#fff" stroke-linecap="round" stroke-linejoin="round" stroke-width="2"/><path d="m65 35-25-25-25 25z" fill="#db3700"/><path d="m75 35-25-25-25 25z" fill="#6fc4fb"/><path d="m46.46 23.54c.4645.4657 1.0162.8351 1.6237 1.0872.6074.252 1.2586.3818 1.9163.3818s1.3089-.1298 1.9163-.3818c.6075-.2521 1.1592-.6215 1.6237-1.0872l11.46 11.46h-30z" fill="#fff"/><path d="m40 65h-30v-20h30c2.6522 0 5.1957 1.0536 7.0711 2.9289 1.8753 1.8754 2.9289 4.4189 2.9289 7.0711s-1.0536 5.1957-2.9289 7.0711c-1.8754 1.8753-4.4189 2.9289-7.0711 2.9289z" fill="#db3700"/><path d="m40 60c2.7614 0 5-2.2386 5-5s-2.2386-5-5-5-5 2.2386-5 5 2.2386 5 5 5z" fill="#fff"/></svg>