<svg fill="none" height="100" viewBox="0 0 100 100" width="100" xmlns="http://www.w3.org/2000/svg"><path d="m10 90v-20h20z" fill="#40a6f9"/><path d="m20 10h60c2.6522 0 5.1957 1.0536 7.0711 2.9289 1.8753 1.8754 2.9289 4.4189 2.9289 7.0711v50c0 2.6522-1.0536 5.1957-2.9289 7.0711-1.8754 1.8753-4.4189 2.9289-7.0711 2.9289h-70v-60c0-2.6522 1.0536-5.1957 2.9289-7.0711 1.8754-1.8753 4.4189-2.9289 7.0711-2.9289z" fill="#050f5a"/><path d="m85 45c0 1.3261.5268 2.5979 1.4645 3.5355.9376.9377 2.2094 1.4645 3.5355 1.4645v-10c-1.3261 0-2.5979.5268-3.5355 1.4645-.9377.9376-1.4645 2.2094-1.4645 3.5355z" fill="#db3700"/><path d="m15 45c0-1.3261-.5268-2.5979-1.4645-3.5355-.9376-.9377-2.2094-1.4645-3.5355-1.4645v10c1.3261 0 2.5979-.5268 3.5355-1.4645.9377-.9376 1.4645-2.2094 1.4645-3.5355z" fill="#db3700"/><path d="m70 45c0 3.9556-1.173 7.8224-3.3706 11.1114s-5.3212 5.8524-8.9757 7.3662c-3.6545 1.5137-7.6759 1.9098-11.5555 1.1381s-7.4433-2.6765-10.2403-5.4736c-2.7971-2.797-4.7019-6.3607-5.4736-10.2403s-.3756-7.9009 1.1381-11.5555c1.5138-3.6545 4.0772-6.7781 7.3662-8.9757s7.1558-3.3706 11.1114-3.3706v5" stroke="#6fc4fb" stroke-linecap="round" stroke-linejoin="round" stroke-width="5"/><g fill="#fff"><path d="m48.1994 51.9999h-7c-.298-.0053-.5818-.128-.7897-.3415s-.323-.5005-.3203-.7985c.0011-.2832.104-.5565.29-.77l4.17-4.69c.5192-.5714.9783-1.1947 1.37-1.86.2614-.4536.4026-.9665.41-1.49.0278-.5793-.1652-1.1475-.54-1.59-.1796-.2023-.4021-.362-.6512-.4676-.2491-.1055-.5186-.1542-.7888-.1424-.313-.0186-.6262.0328-.9168.1504s-.5513.2985-.7632.5296c-.2522.2846-.4277.6288-.51 1-.056.2399-.1909.4541-.3831.6082s-.4306.2393-.6769.2418c-.1701.0016-.3383-.0356-.4919-.1086-.1536-.0731-.2885-.1802-.3946-.3133-.106-.133-.1803-.2884-.2173-.4544s-.0357-.3383.0038-.5037c.0887-.2988.2094-.5871.36-.86.3763-.6789.9476-1.2292 1.64-1.58.7317-.3792 1.5459-.5715 2.37-.56 1.1128-.0657 2.2093.2914 3.07 1 .3812.3538.68.7872.8753 1.2693s.2822 1.0013.2547 1.5207c-.0146.7711-.2098 1.528-.57 2.21-.5077.9331-1.1291 1.7998-1.85 2.58l-3.27 3.61h5.32c.2396.0052.4674.1048.6341.2771.1666.1722.2586.4032.2559.6429-.0051.2344-.1005.4578-.2664.6237-.1658.1658-.3892.2612-.6236.2663z"/><path d="m58.3402 47.0795h.76c.1195.0013.2376.0261.3475.073.1099.047.2095.1151.2931.2005.0835.0855.1495.1865.194.2974.0445.111.0667.2295.0654.3491.0027.2423-.0903.4758-.2588.65-.1685.1741-.3989.2747-.6412.28h-.76v1.92c.0027.3006-.1135.5901-.3233.8055-.2097.2154-.4961.3392-.7967.3445-.2988-.0079-.5827-.1328-.7903-.3479s-.3224-.5032-.3197-.8021v-1.92h-4.76c-.2797-.0075-.5461-.1213-.7449-.3182-.1987-.1969-.315-.4622-.3251-.7418-.0091-.2256.0501-.4487.17-.64l5.14-8.33c.1332-.215.3185-.3928.5388-.5169.2203-.1242.4684-.1906.7212-.1931.4014.0078.7834.1742 1.0625.4627.2792.2886.4329.6758.4275 1.0773zm-5.73 0h3.5v-5.77l-.17.3z"/></g></svg>