<svg fill="none" height="100" viewBox="0 0 100 100" width="100" xmlns="http://www.w3.org/2000/svg"><path d="m75 20h-10c-5.5228 0-10 4.4772-10 10v20c0 5.5228 4.4772 10 10 10h10c5.5228 0 10-4.4772 10-10v-20c0-5.5228-4.4772-10-10-10z" fill="#db3700"/><path d="m55 10h-30c-5.5228 0-10 4.4772-10 10v30c0 5.5228 4.4772 10 10 10h30c5.5228 0 10-4.4772 10-10v-30c0-5.5228-4.4772-10-10-10z" fill="#6fc4fb"/><path d="m46.0496 24.28-6-3-6 3c-.153.0771-.3232.1136-.4943.106-.1712-.0076-.3375-.059-.4831-.1494-.1455-.0903-.2654-.2165-.3482-.3665-.0827-.15-.1256-.3188-.1244-.4901v-13.38h15v13.38c.0124.186-.0275.3717-.1151.5362-.0875.1645-.2194.3013-.3805.3949-.1612.0936-.3453.1402-.5316.1348-.1863-.0055-.3674-.063-.5228-.1659z" fill="#40a6f9"/><path d="m71.8 85h-43.6c-2.307.0028-4.544-.7922-6.3319-2.2502s-3.0167-3.4894-3.4781-5.7498l-8.39-42h80l-8.39 42c-.4614 2.2604-1.6902 4.2918-3.4781 5.7498s-4.0249 2.253-6.3319 2.2502z" fill="#050f5a"/><g fill="#40a6f9"><path d="m53 52.5c0-1.3807-1.1193-2.5-2.5-2.5s-2.5 1.1193-2.5 2.5v25c0 1.3807 1.1193 2.5 2.5 2.5s2.5-1.1193 2.5-2.5z"/><path d="m33 52.5c0-1.3807-1.1193-2.5-2.5-2.5s-2.5 1.1193-2.5 2.5v25c0 1.3807 1.1193 2.5 2.5 2.5s2.5-1.1193 2.5-2.5z"/><path d="m73 52.5c0-1.3807-1.1193-2.5-2.5-2.5s-2.5 1.1193-2.5 2.5v25c0 1.3807 1.1193 2.5 2.5 2.5s2.5-1.1193 2.5-2.5z"/><path d="m90 35h-80c-2.76142 0-5 2.2386-5 5s2.23858 5 5 5h80c2.7614 0 5-2.2386 5-5s-2.2386-5-5-5z"/></g><path d="m70.5 40.5v9.5c0 5.3043-2.1071 10.3914-5.8579 14.1421-3.7507 3.7508-8.8378 5.8579-14.1421 5.8579-5.3043 0-10.3914-2.1071-14.1421-5.8579-3.7508-3.7507-5.8579-8.8378-5.8579-14.1421v-9.5" stroke="#fff" stroke-linecap="round" stroke-linejoin="round" stroke-width="5"/></svg>