<svg fill="none" height="100" viewBox="0 0 100 100" width="100" xmlns="http://www.w3.org/2000/svg"><path d="m15 15h40c2.6522 0 5.1957 1.0536 7.0711 2.9289 1.8753 1.8754 2.9289 4.4189 2.9289 7.0711v50h-50c-2.6522 0-5.1957-1.0536-7.07107-2.9289-1.87536-1.8754-2.92893-4.4189-2.92893-7.0711v-40c0-2.6522 1.05357-5.1957 2.92893-7.0711 1.87537-1.8753 4.41887-2.9289 7.07107-2.9289z" fill="#050f5a"/><path d="m65 35h13.82c1.8566.001 3.6763.5188 5.2553 1.4955 1.5789.9767 2.8548 2.3737 3.6847 4.0345l6.18 12.36c.6979 1.3867 1.0609 2.9176 1.06 4.47v7.64c0 2.6522-1.0536 5.1957-2.9289 7.0711-1.8754 1.8753-4.4189 2.9289-7.0711 2.9289h-20z" fill="#40a6f9"/><path d="m65 55h19.26c.3404-.0002.6751-.0872.9725-.2529.2973-.1657.5475-.4046.7267-.694.1793-.2894.2817-.6197.2976-.9598.0158-.34-.0553-.6785-.2068-.9833l-4.67-9.35c-.4157-.8295-1.0539-1.5269-1.8433-2.0144-.7894-.4874-1.6989-.7456-2.6267-.7456h-11.91z" fill="#fff"/><path d="m40 35h10l-30 20 10-20h-10l10-20h20z" fill="#6fc4fb"/><path d="m80 85c5.5228 0 10-4.4772 10-10s-4.4772-10-10-10-10 4.4772-10 10 4.4772 10 10 10z" fill="#db3700"/><path d="m80 77.5c1.3807 0 2.5-1.1193 2.5-2.5s-1.1193-2.5-2.5-2.5-2.5 1.1193-2.5 2.5 1.1193 2.5 2.5 2.5z" fill="#fff"/><path d="m33.9609 85c5.5229 0 10-4.4772 10-10s-4.4771-10-10-10c-5.5228 0-10 4.4772-10 10s4.4772 10 10 10z" fill="#db3700"/><path d="m33.9609 77.5c1.3807 0 2.5-1.1193 2.5-2.5s-1.1193-2.5-2.5-2.5-2.5 1.1193-2.5 2.5 1.1193 2.5 2.5 2.5z" fill="#fff"/></svg>